#!OML:ASF F:\VICON\USERDATA\INSTALL\rory3\rory3.ASF
:FULLY-SPECIFIED
:DEGREES
35
root -0.13753233165614348 18.2205196372899 11.396528220629756 -3.576187604166642 -1.115946258253794 -5.7831533850769485
lfemur -20.393852208046006 2.9654026160819735 -13.121863508300176
ltibia 68.52814207756455
lfoot -2.5798741153049347 -3.768385008453545
ltoes -6.139550997253508
rfemur -6.9805737734735915 6.309424338686884 32.31784481703476
rtibia 31.59683241551744
rfoot -14.631121708023063 -5.751716133069016
rtoes 8.635026280207374
lowerback 10.139877309611538 0.838702672783986 4.176845118115422
upperback 0.5932077321416807 1.7207941365206287 2.5111854901629043
thorax -5.05802007825244 0.7865489737475019 0.03354715845862355
lowerneck -16.422446346518733 -3.0710462245315786 -1.6424000905568987
upperneck 21.585134322328397 -3.998143145373856 0.9253349588487314
head 9.619005477474028 -1.9032725969244002 0.08366815305194165
lclavicle -2.6994102020896205e-15 -3.507818767305995e-16
lhumerus -31.43623071753013 -0.9338496554319518 84.8814034227539
lradius 27.007149092458583
lwrist 5.021629747884863
lhand -26.176661895608845 24.80369729613774
lfingers 7.1250199999999975
lthumb 0.3750730366381314 54.78196453574303
rclavicle -2.6994102020896205e-15 -3.507818767305995e-16
rhumerus -27.965562307163534 -17.65783161821913 -79.59568201532983
rradius 22.307782665477124
rwrist 6.70024704245042
rhand -17.05584494361335 21.036381755169806
rfingers 7.1250199999999975
rthumb 9.181525505131928 -8.600309946622358
36
root -0.13053400084328554 18.18648724402348 12.981663201942352 -3.1777813819557528 -2.222957944384099 -6.381840900006878
lfemur -24.345034603888166 3.2162643731863354 -12.829057222539458
ltibia 63.126901460844294
lfoot -5.672883817981256 0.2789442446595898
ltoes -5.446492750312171
rfemur -3.6448597385500605 6.5818379801191185 33.41840158965895
rtibia 29.62609484697609
rfoot -16.520052696607657 -6.042712396411723
rtoes 7.913794489485122
lowerback 10.137066372454045 1.4161536383049405 5.39004559181215
upperback 0.5579608489151638 2.622312135629464 2.338966491043596
thorax -5.036745372572371 1.1993586944957175 -0.8277608921465415
lowerneck -16.551968551958264 -3.10964445827167 -1.5606930123888345
upperneck 21.361504974050725 -4.071607769562903 0.9919087752285893
head 9.56263407230772 -1.9244772758928035 0.07402171349350721
lclavicle -2.4167691164416107e-15 -1.6225694354238838e-16
lhumerus -32.75975070818482 -0.40014453671628436 84.76535648017406
lradius 26.824783880684656
lwrist 5.8489319528990205
lhand -26.405605610163402 24.036834555394275
lfingers 7.1250199999999975
lthumb 0.15396555167861636 54.01384524449608
rclavicle -2.4167691164416107e-15 -1.6225694354238838e-16
rhumerus -26.528672511121805 -14.710965669920576 -80.68243174893196
rradius 24.165700941216652
rwrist 4.526929998882424
rhand -17.317886606367942 20.78132693853582
rfingers 7.1250199999999975
rthumb 8.928638533329226 -8.736599730768278
37
root -0.09345710949838887 18.126776819543483 14.422251682826085 -2.472913666256337 -3.2238070446808456 -6.830272961895391
lfemur -26.339722150945722 2.196394079762116 -12.177190101434782
ltibia 52.11645991131923
lfoot -6.59680955544316 3.9055944485699126
ltoes -4.72818538233019
rfemur -0.18630806941376754 6.836121464661672 34.37648690949301
rtibia 27.499892435126615
rfoot -17.67627106293415 -6.159266517082751
rtoes 6.593580308261606
lowerback 10.032602398647386 1.9398446350443121 6.581195339115598
upperback 0.49514013811540003 3.4257150587108414 2.209786584807286
thorax -4.963688134746205 1.5685130898378263 -1.6029597478646331
lowerneck -16.714299278946196 -3.141257950480612 -1.4842332912145773
upperneck 21.135368472474024 -4.117233022900453 1.025189092187469
head 9.502326237492188 -1.940445403974021 0.06290627650012694
lclavicle -2.0017703415585506e-15 1.1455212751231364e-16
lhumerus -34.03601143776221 0.576485627873289 84.7027791130411
lradius 26.807628760092967
lwrist 6.365342728434147
lhand -26.867735902520486 23.312038798204348
lfingers 7.1250199999999975
lthumb -0.2923474415608033 53.28895598014023
rclavicle -2.0017703415585506e-15 1.1455212751231364e-16
rhumerus -25.080832255383434 -11.656267118729305 -81.56188573809753
rradius 26.101072274850186
rwrist 2.7735465822278695
rhand -17.670523725914876 21.376339820067056
rfingers 7.1250199999999975
rthumb 8.58829085956686 -8.130022661942204
38
root -0.0634598482335717 18.03965448568845 15.146586104019256 -1.7723700420046233 -4.187482545700758 -7.741248496927705
lfemur -28.127417545036277 -0.2770383171689508 -11.028459313420539
ltibia 37.08134764616154
lfoot -6.777992141611052 6.764817794522633
ltoes -4.734188167097142
rfemur 3.203800865581112 6.853373270263143 35.08094623424039
rtibia 24.38417603248179
rfoot -19.04203645694448 -6.40730652687072
rtoes 5.39344239529808
lowerback 9.749252932008737 2.3394861378312544 7.542885895386395
upperback 0.38575011281841887 4.051551425641756 2.1338200439427726
thorax -4.864736278961475 1.853427236499185 -2.430891670855578
lowerneck -17.021205097646696 -3.1649218346400563 -1.4368179369125866
upperneck 20.845387429069003 -4.156206399018927 1.0069484225358603
head 9.430149519714613 -1.9510708898202618 0.03815800548663496
lclavicle -2.8520421203932496e-15 -4.525891701697556e-16
lhumerus -35.62115125962717 1.2994537006822424 84.65662156349303
lradius 26.25813980313584
lwrist 6.039874615807188
lhand -27.141174562272173 22.85770955794699
lfingers 7.1250199999999975
lthumb -0.5564169804399687 52.832838388658445
rclavicle -2.8520421203932496e-15 -4.525891701697556e-16
rhumerus -23.885392808808117 -9.440810115664434 -82.34761172157003
rradius 27.661464153994824
rwrist 1.1196909749681163
rhand -18.07810509529905 22.23564213959254
rfingers 7.1250199999999975
rthumb 8.194931113985183 -7.329261410972725
